<?xml version="1.0" encoding="UTF-8"?>
<svg version="1.1" xmlns="http://www.w3.org/2000/svg" width="654" height="120">
<path d="M0 0 C215.82 0 431.64 0 654 0 C654 39.6 654 79.2 654 120 C438.18 120 222.36 120 0 120 C0 80.4 0 40.8 0 0 Z " fill="#22324E" transform="translate(0,0)"/>
<path d="M0 0 C6.6 0 13.2 0 20 0 C23 8 23 8 24 15 C33.9 15 43.8 15 54 15 C54 16.65 54 18.3 54 20 C52.26419468 21.73580532 49.86819899 21.19113602 47.50390625 21.24609375 C45.83038086 21.29540039 45.83038086 21.29540039 44.12304688 21.34570312 C41.7533502 21.40679788 39.38355272 21.46410255 37.01367188 21.51757812 C35.89669922 21.55173828 34.77972656 21.58589844 33.62890625 21.62109375 C32.0831189 21.65867798 32.0831189 21.65867798 30.50610352 21.69702148 C27.82950086 21.75908138 27.82950086 21.75908138 26 24 C25.7499227 26.54190002 25.7499227 26.54190002 26 29 C27.12534105 30.35618499 27.12534105 30.35618499 30.0625 30.0625 C31.5165625 30.0315625 31.5165625 30.0315625 33 30 C33.66 27.69 34.32 25.38 35 23 C39.29 23 43.58 23 48 23 C48 25.31 48 27.62 48 30 C50.33294775 30.04241723 52.66702567 30.04092937 55 30 C56.32131818 28.90368631 56.32131818 28.90368631 56.125 26.1875 C56.1764341 23.18889466 56.1764341 23.18889466 55.34375 21.26953125 C54.8096256 17.74309626 56.18134988 14.76983941 57.375 11.5 C59.39239554 5.81274359 59.39239554 5.81274359 61 0 C64.14581423 -0.02888514 67.29159469 -0.04675923 70.4375 -0.0625 C71.78424805 -0.07506836 71.78424805 -0.07506836 73.15820312 -0.08789062 C74.01220703 -0.09111328 74.86621094 -0.09433594 75.74609375 -0.09765625 C76.53685303 -0.10289307 77.3276123 -0.10812988 78.14233398 -0.11352539 C80 0 80 0 81 1 C81.09304018 2.47354348 81.11746265 3.95150591 81.11352539 5.42797852 C81.11340454 6.38208618 81.11328369 7.33619385 81.11315918 8.31921387 C81.10804321 9.32891235 81.10292725 10.33861084 81.09765625 11.37890625 C81.09664917 12.30183472 81.09564209 13.22476318 81.09460449 14.17565918 C81.08935494 17.63795201 81.07539381 21.1002272 81.0625 24.5625 C81.041875 32.296875 81.02125 40.03125 81 48 C53.94 48 26.88 48 -1 48 C-1.020625 40.45125 -1.04125 32.9025 -1.0625 25.125 C-1.071604 22.74168457 -1.08070801 20.35836914 -1.09008789 17.90283203 C-1.09300754 16.02115943 -1.09555598 14.1394862 -1.09765625 12.2578125 C-1.10277222 11.27482178 -1.10788818 10.29183105 -1.11315918 9.27905273 C-1.11328003 8.34536865 -1.11340088 7.41168457 -1.11352539 6.44970703 C-1.115746 5.6369632 -1.11796661 4.82421936 -1.12025452 3.98684692 C-1 2 -1 2 0 0 Z " fill="#182947" transform="translate(120,39)"/>
<path d="M0 0 C7.60846377 4.41290899 10.83183092 8.25475172 13.125 16.8125 C14.44322951 24.05660233 12.19017643 29.81152527 8.125 35.8125 C4.23938619 40.10526241 -0.02236859 43.47685408 -5.9375 43.9921875 C-12.94213526 44.20516627 -18.47560984 43.20301946 -24.0625 38.75 C-29.64759964 33.49024597 -32.02131472 27.95323481 -32.4375 20.3125 C-32.14580966 13.58480334 -29.8208485 8.53483081 -24.8671875 3.95703125 C-17.72875596 -1.5877652 -8.7081329 -3.45591821 0 0 Z " fill="#2E3D57" transform="translate(483.875,32.1875)"/>
<path d="M0 0 C2.64 0 5.28 0 8 0 C8 0.66 8 1.32 8 2 C5.69 2 3.38 2 1 2 C0.86722656 2.69867187 0.73445313 3.39734375 0.59765625 4.1171875 C0.42105469 5.02726562 0.24445313 5.93734375 0.0625 6.875 C-0.11152344 7.77992187 -0.28554687 8.68484375 -0.46484375 9.6171875 C-1 12 -1 12 -2 14 C-1.43490723 13.98952637 -0.86981445 13.97905273 -0.28759766 13.96826172 C2.26655653 13.92675212 4.82063982 13.9006904 7.375 13.875 C8.26445312 13.85824219 9.15390625 13.84148438 10.0703125 13.82421875 C10.92109375 13.81777344 11.771875 13.81132813 12.6484375 13.8046875 C13.82672119 13.78897705 13.82672119 13.78897705 15.02880859 13.77294922 C17 14 17 14 19 16 C19.24050903 18.10073853 19.24050903 18.10073853 19.22705078 20.72509766 C19.22689972 21.70596344 19.22674866 22.68682922 19.22659302 23.69741821 C19.21627045 24.75891083 19.20594788 25.82040344 19.1953125 26.9140625 C19.1924826 27.99883881 19.18965271 29.08361511 19.18673706 30.20126343 C19.17551578 33.67595313 19.15040762 37.15038782 19.125 40.625 C19.11497272 42.97655879 19.10584643 45.3281216 19.09765625 47.6796875 C19.07557011 53.45321244 19.04207345 59.22658801 19 65 C20.65 65 22.3 65 24 65 C24.23016544 67.7619853 24.18097691 69.60408464 23.02018738 72.14349365 C19.89615847 75.01440531 16.51509988 74.52457932 12.48950195 74.45410156 C11.18674316 74.45497772 11.18674316 74.45497772 9.85766602 74.45587158 C6.98413256 74.45308265 4.1116337 74.42195272 1.23828125 74.390625 C-0.75282728 74.38316548 -2.74394315 74.37747119 -4.73506165 74.37347412 C-9.97791787 74.35819504 -15.22033146 74.31889351 -20.4630127 74.2746582 C-25.81186942 74.23375459 -31.16079761 74.2154736 -36.50976562 74.1953125 C-47.00670499 74.15240157 -57.5033157 74.08412264 -68 74 C-68 73.67 -68 73.34 -68 73 C-39.29 73 -10.58 73 19 73 C21 69.23570226 21 69.23570226 22 66 C-7.04 66 -36.08 66 -66 66 C-66 65.67 -66 65.34 -66 65 C-38.61 65 -11.22 65 17 65 C16.67 49.16 16.34 33.32 16 17 C9.73 16.67 3.46 16.34 -3 16 C-3.33 17.98 -3.66 19.96 -4 22 C-4.68468978 24.09122304 -5.39398057 26.17451825 -6.125 28.25 C-7.84205629 33.6035362 -8.22684094 37.57118802 -7.1640625 43.07421875 C-7.10992187 43.70972656 -7.05578125 44.34523437 -7 45 C-7.66 45.66 -8.32 46.32 -9 47 C-12.625 46.625 -12.625 46.625 -16 46 C-17.125 41.25 -17.125 41.25 -16 39 C-20.29 39 -24.58 39 -29 39 C-29 40.98 -29 42.96 -29 45 C-31 47 -31 47 -34 47.25 C-37 47 -37 47 -39 45 C-39.35313257 42.24556594 -39.47809727 40.67138991 -37.84057617 38.37182617 C-35.28162562 36.46457811 -33.40938448 36.5687661 -30.23828125 36.48828125 C-29.12001953 36.45283203 -28.00175781 36.41738281 -26.84960938 36.38085938 C-25.68236328 36.35830078 -24.51511719 36.33574219 -23.3125 36.3125 C-22.13365234 36.27833984 -20.95480469 36.24417969 -19.74023438 36.20898438 C-16.82691775 36.12642075 -13.91390534 36.05729678 -11 36 C-10.67 34.35 -10.34 32.7 -10 31 C-19.9 31 -29.8 31 -40 31 C-41.32 26.38 -42.64 21.76 -44 17 C-50.6 16.67 -57.2 16.34 -64 16 C-64.33 31.84 -64.66 47.68 -65 64 C-65.33 64 -65.66 64 -66 64 C-66.02526838 57.03996553 -66.04283222 50.0799428 -66.05493164 43.11987305 C-66.05997341 40.75007688 -66.06680665 38.38028385 -66.07543945 36.01049805 C-66.0875119 32.61245961 -66.09322971 29.21446215 -66.09765625 25.81640625 C-66.10281754 24.74975235 -66.10797882 23.68309845 -66.11329651 22.5841217 C-66.11337204 21.60318039 -66.11344757 20.62223907 -66.11352539 19.61157227 C-66.115746 18.74331314 -66.11796661 17.87505402 -66.12025452 16.98048401 C-66 15 -66 15 -65 14 C-63.5112814 13.91330568 -62.018555 13.89296506 -60.52734375 13.90234375 C-59.62822266 13.90556641 -58.72910156 13.90878906 -57.80273438 13.91210938 C-56.85720703 13.92048828 -55.91167969 13.92886719 -54.9375 13.9375 C-53.98810547 13.94201172 -53.03871094 13.94652344 -52.06054688 13.95117188 C-49.70696935 13.9629989 -47.35351523 13.97947975 -45 14 C-45.33 12.35 -45.66 10.7 -46 9 C-31.81 8.67 -17.62 8.34 -3 8 C-2.01 5.36 -1.02 2.72 0 0 Z " fill="#419AE7" transform="translate(184,23)"/>
<path d="M0 0 C21 0 21 0 28 4 C31.30227011 7.45468258 33.28815026 11.31693192 33.5 16.125 C32.64619074 22.74202177 30.03480997 26.6844486 25 31 C20.83664545 33.13694304 17.32588938 33.21169887 12.6875 33.125 C10.80611328 33.09792969 10.80611328 33.09792969 8.88671875 33.0703125 C7.45779297 33.03550781 7.45779297 33.03550781 6 33 C6 36.63 6 40.26 6 44 C4.02 44 2.04 44 0 44 C0 29.48 0 14.96 0 0 Z " fill="#F2F3F5" transform="translate(414,31)"/>
<path d="M0 0 C1.98 0 3.96 0 6 0 C6.33 5.28 6.66 10.56 7 16 C7.66 15.67 8.32 15.34 9 15 C13.55897843 14.4027209 18.07410452 13.95538885 22.2109375 16.19921875 C25.86327924 19.25824759 28.51250446 22.27002497 29.37109375 27.078125 C29.55899378 33.22356128 28.12079762 37.38036898 24 42 C19.6325162 45.0382496 16.24941411 45.38177557 11 45 C9.33178677 44.67449498 7.66500443 44.34153937 6 44 C4.02 44 2.04 44 0 44 C0 29.48 0 14.96 0 0 Z " fill="#F5F6F7" transform="translate(362,31)"/>
<path d="M0 0 C8 0 8 0 9.79724121 1.25280762 C10.17030396 1.83904907 10.5433667 2.42529053 10.92773438 3.02929688 C11.36758667 3.68998169 11.80743896 4.3506665 12.26062012 5.03137207 C12.70055298 5.75320679 13.14048584 6.4750415 13.59375 7.21875 C14.07074341 7.95121948 14.54773682 8.68368896 15.03918457 9.43835449 C16.55303229 11.77617163 18.02635197 14.13668384 19.5 16.5 C20.52086324 18.09149795 21.5442739 19.68136493 22.5703125 21.26953125 C25.08212487 25.15918244 27.53757138 29.07709647 30 33 C30.33 22.11 30.66 11.22 31 0 C33.31 0 35.62 0 38 0 C38 14.52 38 29.04 38 44 C29 44 29 44 25.95874023 40.97070312 C25.04311575 39.59514343 24.16117099 38.19675157 23.30859375 36.78125 C22.59522606 35.68254578 22.59522606 35.68254578 21.8674469 34.56164551 C20.36037007 32.2256632 18.89919486 29.86458418 17.4375 27.5 C16.42152396 25.9082988 15.40267289 24.31842882 14.38085938 22.73046875 C11.88067755 18.84310237 9.44455055 14.92487351 7 11 C6.67 21.89 6.34 32.78 6 44 C4.02 44 2.04 44 0 44 C0 29.48 0 14.96 0 0 Z " fill="#F7F8F8" transform="translate(232,31)"/>
<path d="M0 0 C0.33 0 0.66 0 1 0 C1 15.84 1 31.68 1 48 C28.39 48 55.78 48 84 48 C84 48.33 84 48.66 84 49 C85.65 49.33 87.3 49.66 89 50 C88.38722388 52.96175123 87.74627478 54.38058783 86 57 C83.17607869 57.30742329 80.56988035 57.41974791 77.74243164 57.40405273 C76.46175056 57.41434761 76.46175056 57.41434761 75.15519714 57.42485046 C72.32334928 57.44320259 69.49205101 57.43926896 66.66015625 57.43359375 C64.697218 57.43815167 62.73428135 57.44345606 60.77134705 57.44947815 C56.65291877 57.4584259 52.53468423 57.45596742 48.41625977 57.44604492 C43.13195298 57.43455575 37.84831445 57.45475754 32.5640955 57.48396206 C28.50894403 57.50228711 24.45395376 57.50203895 20.39877129 57.49632454 C18.45027161 57.49617086 16.50176132 57.50225373 14.55330086 57.51461601 C11.83075896 57.52945389 9.10946507 57.51890239 6.38696289 57.50170898 C5.57802582 57.51137695 4.76908875 57.52104492 3.93563843 57.53100586 C-1.50335732 57.45888866 -1.50335732 57.45888866 -4.01246643 55.14051819 C-5.18379626 52.60161432 -5.23045078 50.76540941 -5 48 C-3.35 48 -1.7 48 0 48 C0 32.16 0 16.32 0 0 Z " fill="#3883C6" transform="translate(117,39)"/>
<path d="M0 0 C7.60846377 4.41290899 10.83183092 8.25475172 13.125 16.8125 C14.44322951 24.05660233 12.19017643 29.81152527 8.125 35.8125 C4.23938619 40.10526241 -0.02236859 43.47685408 -5.9375 43.9921875 C-12.94213526 44.20516627 -18.47560984 43.20301946 -24.0625 38.75 C-29.64759964 33.49024597 -32.02131472 27.95323481 -32.4375 20.3125 C-32.14580966 13.58480334 -29.8208485 8.53483081 -24.8671875 3.95703125 C-17.72875596 -1.5877652 -8.7081329 -3.45591821 0 0 Z M-22.1875 10.4375 C-25.82753443 15.56051141 -25.44572679 20.67919666 -24.875 26.8125 C-23.43190428 30.31167005 -23.43190428 30.31167005 -20.875 32.8125 C-19.575625 34.235625 -19.575625 34.235625 -18.25 35.6875 C-13.675467 38.56776152 -10.14566374 38.71318304 -4.875 37.8125 C-1.04802434 36.47020257 1.53952108 34.59313856 4 31.3125 C6.72825901 25.24970221 7.18091193 18.86291225 5 12.5625 C2.40682667 8.75917912 -0.47267539 5.81992645 -4.8125 4 C-5.8334375 3.9071875 -5.8334375 3.9071875 -6.875 3.8125 C-7.98875 3.709375 -9.1025 3.60625 -10.25 3.5 C-15.75515171 3.97458204 -18.60306754 6.36868477 -22.1875 10.4375 Z " fill="#F3F4F5" transform="translate(483.875,32.1875)"/>
<path d="M0 0 C1.98 0 3.96 0 6 0 C6.33 0.99 6.66 1.98 7 3 C7.474375 2.505 7.94875 2.01 8.4375 1.5 C12.16002963 -0.67904173 15.77382564 -0.57291448 20 0 C22.59994537 1.07860053 23.99003307 1.99003307 26 4 C26.639375 3.34 27.27875 2.68 27.9375 2 C32.04403493 -0.68181873 35.21940843 -0.72012541 40 0 C42.92939473 1.24655095 44.43231751 2.09299876 46.11669922 4.78417969 C47.16340492 7.40991239 47.22812871 9.38093121 47.1953125 12.203125 C47.18886719 13.1828125 47.18242187 14.1625 47.17578125 15.171875 C47.15902344 16.18765625 47.14226562 17.2034375 47.125 18.25 C47.11597656 19.28125 47.10695313 20.3125 47.09765625 21.375 C47.07412011 23.91690287 47.04124023 26.4583328 47 29 C45.02 29 43.04 29 41 29 C40.970271 28.11477661 40.970271 28.11477661 40.93994141 27.21166992 C40.84465341 24.53649904 40.73499061 21.86210502 40.625 19.1875 C40.5940625 18.25873047 40.563125 17.32996094 40.53125 16.37304688 C40.47324219 15.0340332 40.47324219 15.0340332 40.4140625 13.66796875 C40.3826416 12.84578857 40.3512207 12.0236084 40.31884766 11.17651367 C40.11626378 8.71047063 40.11626378 8.71047063 38 6 C33.29526173 5.43519262 33.29526173 5.43519262 29.125 7.3125 C27.25438412 10.11842383 26.85629901 12.73031874 26.68359375 16.01171875 C26.64169922 16.76904297 26.59980469 17.52636719 26.55664062 18.30664062 C26.51732422 19.09232422 26.47800781 19.87800781 26.4375 20.6875 C26.39431641 21.48478516 26.35113281 22.28207031 26.30664062 23.10351562 C26.20072632 25.06881447 26.09987449 27.03438496 26 29 C24.35 29 22.7 29 21 29 C20.98018066 28.40985107 20.96036133 27.81970215 20.93994141 27.21166992 C20.84465341 24.53649904 20.73499061 21.86210502 20.625 19.1875 C20.5940625 18.25873047 20.563125 17.32996094 20.53125 16.37304688 C20.49257813 15.48037109 20.45390625 14.58769531 20.4140625 13.66796875 C20.36693115 12.43469849 20.36693115 12.43469849 20.31884766 11.17651367 C20.11626378 8.71047063 20.11626378 8.71047063 18 6 C13.92789115 5.46926747 13.92789115 5.46926747 10 6 C7.82197123 7.80507863 7.10397891 9.32597018 6.67456055 12.10961914 C6.47974243 14.65859592 6.37855786 17.19450442 6.3125 19.75 C6.27833984 20.63816406 6.24417969 21.52632812 6.20898438 22.44140625 C6.12671286 24.62747803 6.05749828 26.81315951 6 29 C4.02 29 2.04 29 0 29 C0 19.43 0 9.86 0 0 Z " fill="#F5F6F7" transform="translate(308,46)"/>
<path d="M0 0 C2.64 0 5.28 0 8 0 C8 0.66 8 1.32 8 2 C5.69 2 3.38 2 1 2 C0.86722656 2.69867187 0.73445313 3.39734375 0.59765625 4.1171875 C0.42105469 5.02726562 0.24445313 5.93734375 0.0625 6.875 C-0.11152344 7.77992187 -0.28554687 8.68484375 -0.46484375 9.6171875 C-1 12 -1 12 -2 14 C-1.43490723 13.98952637 -0.86981445 13.97905273 -0.28759766 13.96826172 C2.26655653 13.92675212 4.82063982 13.9006904 7.375 13.875 C8.26445312 13.85824219 9.15390625 13.84148438 10.0703125 13.82421875 C10.92109375 13.81777344 11.771875 13.81132813 12.6484375 13.8046875 C13.82672119 13.78897705 13.82672119 13.78897705 15.02880859 13.77294922 C17 14 17 14 19 16 C19.24050903 18.10073853 19.24050903 18.10073853 19.22705078 20.72509766 C19.22689972 21.70596344 19.22674866 22.68682922 19.22659302 23.69741821 C19.21627045 24.75891083 19.20594788 25.82040344 19.1953125 26.9140625 C19.1924826 27.99883881 19.18965271 29.08361511 19.18673706 30.20126343 C19.17551578 33.67595313 19.15040762 37.15038782 19.125 40.625 C19.11497272 42.97655879 19.10584643 45.3281216 19.09765625 47.6796875 C19.07557011 53.45321244 19.04207345 59.22658801 19 65 C20.65 65 22.3 65 24 65 C24.23016544 67.7619853 24.18097691 69.60408464 23.02018738 72.14349365 C19.89615847 75.01440531 16.51509988 74.52457932 12.48950195 74.45410156 C11.18674316 74.45497772 11.18674316 74.45497772 9.85766602 74.45587158 C6.98413256 74.45308265 4.1116337 74.42195272 1.23828125 74.390625 C-0.75282728 74.38316548 -2.74394315 74.37747119 -4.73506165 74.37347412 C-9.97791787 74.35819504 -15.22033146 74.31889351 -20.4630127 74.2746582 C-25.81186942 74.23375459 -31.16079761 74.2154736 -36.50976562 74.1953125 C-47.00670499 74.15240157 -57.5033157 74.08412264 -68 74 C-68 73.67 -68 73.34 -68 73 C-39.29 73 -10.58 73 19 73 C21 69.23570226 21 69.23570226 22 66 C-7.04 66 -36.08 66 -66 66 C-66 65.67 -66 65.34 -66 65 C-38.61 65 -11.22 65 17 65 C16.67 49.16 16.34 33.32 16 17 C9.73 16.67 3.46 16.34 -3 16 C-3 16.66 -3 17.32 -3 18 C-3.66 18 -4.32 18 -5 18 C-4.67 15.69 -4.34 13.38 -4 11 C-6.64 11 -9.28 11 -12 11 C-12.33 12.98 -12.66 14.96 -13 17 C-13.33 17 -13.66 17 -14 17 C-14 15.02 -14 13.04 -14 11 C-16.97 11 -19.94 11 -23 11 C-23 13.31 -23 15.62 -23 18 C-23.33 18 -23.66 18 -24 18 C-24 15.69 -24 13.38 -24 11 C-26.97 11 -29.94 11 -33 11 C-33 12.65 -33 14.3 -33 16 C-33.66 15.34 -34.32 14.68 -35 14 C-35 13.01 -35 12.02 -35 11 C-37.64 11 -40.28 11 -43 11 C-42.67 12.98 -42.34 14.96 -42 17 C-49.26 16.67 -56.52 16.34 -64 16 C-64.33 31.84 -64.66 47.68 -65 64 C-65.33 64 -65.66 64 -66 64 C-66.02526838 57.03996553 -66.04283222 50.0799428 -66.05493164 43.11987305 C-66.05997341 40.75007688 -66.06680665 38.38028385 -66.07543945 36.01049805 C-66.0875119 32.61245961 -66.09322971 29.21446215 -66.09765625 25.81640625 C-66.10281754 24.74975235 -66.10797882 23.68309845 -66.11329651 22.5841217 C-66.11337204 21.60318039 -66.11344757 20.62223907 -66.11352539 19.61157227 C-66.115746 18.74331314 -66.11796661 17.87505402 -66.12025452 16.98048401 C-66 15 -66 15 -65 14 C-63.5112814 13.91330568 -62.018555 13.89296506 -60.52734375 13.90234375 C-59.62822266 13.90556641 -58.72910156 13.90878906 -57.80273438 13.91210938 C-56.85720703 13.92048828 -55.91167969 13.92886719 -54.9375 13.9375 C-53.98810547 13.94201172 -53.03871094 13.94652344 -52.06054688 13.95117188 C-49.70696935 13.9629989 -47.35351523 13.97947975 -45 14 C-45.33 12.35 -45.66 10.7 -46 9 C-31.81 8.67 -17.62 8.34 -3 8 C-2.01 5.36 -1.02 2.72 0 0 Z " fill="#46AAFD" transform="translate(184,23)"/>
<path d="M0 0 C2.02321207 1.20956843 3.71639278 2.24151756 5.30078125 3.98828125 C5.30078125 4.97828125 5.30078125 5.96828125 5.30078125 6.98828125 C3.73828125 8.23828125 3.73828125 8.23828125 1.30078125 8.98828125 C-0.38029479 7.99941299 -2.05883261 7.00529547 -3.7109375 5.96875 C-7.33472562 4.18177393 -10.7860165 4.20010977 -14.69921875 4.98828125 C-18.96077665 6.84757099 -21.2332147 9.22162942 -23.63671875 13.17578125 C-25.34489531 19.30512068 -25.88073398 24.534365 -23.07421875 30.36328125 C-19.94584151 33.82096135 -17.29504539 36.57350823 -12.5234375 37.3359375 C-7.42283917 37.53310349 -4.19539091 36.49777269 0.30078125 33.98828125 C1.62078125 33.98828125 2.94078125 33.98828125 4.30078125 33.98828125 C4.96078125 35.30828125 5.62078125 36.62828125 6.30078125 37.98828125 C-0.87016724 42.99126857 -5.9597726 44.8649655 -14.69921875 43.98828125 C-22.09096586 41.64756133 -26.84421176 37.9854567 -30.57421875 31.30078125 C-33.40345323 25.10034854 -33.9497402 19.86604501 -31.84765625 13.34765625 C-29.13893434 7.19314525 -25.5444121 3.30218794 -19.69921875 -0.01171875 C-13.62949765 -2.03495912 -6.0201174 -2.256455 0 0 Z " fill="#F2F3F4" transform="translate(534.69921875,32.01171875)"/>
<path d="M0 0 C1.98 0 3.96 0 6 0 C6.49371094 1.14339844 6.98742187 2.28679688 7.49609375 3.46484375 C8.14310512 4.955783 8.7902473 6.4466655 9.4375 7.9375 C9.76298828 8.69224609 10.08847656 9.44699219 10.42382812 10.22460938 C11.80102606 13.87028689 11.80102606 13.87028689 14 17 C14.40992188 15.94039062 14.81984375 14.88078125 15.2421875 13.7890625 C15.78618379 12.40093404 16.33046971 11.01291907 16.875 9.625 C17.14441406 8.92632812 17.41382813 8.22765625 17.69140625 7.5078125 C19.7734375 2.2265625 19.7734375 2.2265625 22 0 C25.125 -0.125 25.125 -0.125 28 0 C23.94874352 10.37651522 19.80517044 20.71622598 15.375 30.9375 C15.02767822 31.77055664 14.68035645 32.60361328 14.32250977 33.46191406 C12.01473891 38.69293295 9.83385566 41.85385416 5 45 C1.1875 44.9375 1.1875 44.9375 -2 44 C-2.33 43.34 -2.66 42.68 -3 42 C-2.0625 39.875 -2.0625 39.875 -1 38 C0.65 38 2.3 38 4 38 C4.639375 36.88625 5.27875 35.7725 5.9375 34.625 C6.29714844 33.99851563 6.65679687 33.37203125 7.02734375 32.7265625 C9.04397889 29.14683265 9.40555379 27.18457779 9 23 C7.71301463 19.31993354 6.11537482 15.79606304 4.5 12.25 C3.65325438 10.36071473 2.8093539 8.47015091 1.96875 6.578125 C1.59169922 5.74700195 1.21464844 4.91587891 0.82617188 4.05957031 C0 2 0 2 0 0 Z " fill="#F3F4F5" transform="translate(276,46)"/>
<path d="M0 0 C12.58580396 -0.70574602 12.58580396 -0.70574602 16.04296875 1.01953125 C18.67652454 3.82299386 19.3338238 6.86659818 19.5625 10.5625 C19.32045806 14.7839961 18.17981213 17.0927432 15 20 C10.09931037 21.63356321 5.14261524 21.05529694 0 21 C0 14.07 0 7.14 0 0 Z " fill="#2D3C56" transform="translate(421,37)"/>
<path d="M0 0 C30.03 0 60.06 0 91 0 C90.34 1.32 89.68 2.64 89 4 C59.96 4 30.92 4 1 4 C0.67 2.68 0.34 1.36 0 0 Z " fill="#172744" transform="translate(115,90)"/>
<path d="M0 0 C0.33 0 0.66 0 1 0 C1 2.31 1 4.62 1 7 C3.31 7 5.62 7 8 7 C8 5.02 8 3.04 8 1 C8.66 0.67 9.32 0.34 10 0 C10 2.31 10 4.62 10 7 C13.68754757 6.50168276 15.60490662 5.89932357 18 3 C17.51383254 6.47262474 17.01357708 9.92668376 16.375 13.375 C16.189375 14.674375 16.189375 14.674375 16 16 C16.33 16.33 16.66 16.66 17 17 C17.1875 19.9375 17.1875 19.9375 17 23 C16.34 23.66 15.68 24.32 15 25 C11.375 24.625 11.375 24.625 8 24 C6.875 19.25 6.875 19.25 8 17 C3.71 17 -0.58 17 -5 17 C-5 18.98 -5 20.96 -5 23 C-7 25 -7 25 -10 25.25 C-13 25 -13 25 -15 23 C-15.35313257 20.24556594 -15.47809727 18.67138991 -13.84057617 16.37182617 C-11.28162562 14.46457811 -9.40938448 14.5687661 -6.23828125 14.48828125 C-5.12001953 14.45283203 -4.00175781 14.41738281 -2.84960938 14.38085938 C-1.68236328 14.35830078 -0.51511719 14.33574219 0.6875 14.3125 C2.45577148 14.26125977 2.45577148 14.26125977 4.25976562 14.20898438 C7.17308225 14.12642075 10.08609466 14.05729678 13 14 C13.33 12.35 13.66 10.7 14 9 C4.1 9 -5.8 9 -16 9 C-15.67 7.68 -15.34 6.36 -15 5 C-14.67 5.33 -14.34 5.66 -14 6 C-11.65012738 6.23527773 -9.29443961 6.41386417 -6.9375 6.5625 C-5.00197266 6.68818359 -5.00197266 6.68818359 -3.02734375 6.81640625 C-1.52880859 6.90728516 -1.52880859 6.90728516 0 7 C0 4.69 0 2.38 0 0 Z " fill="#44A3F4" transform="translate(160,45)"/>
<path d="M0 0 C0 0.66 0 1.32 0 2 C0.99 2.33 1.98 2.66 3 3 C4.60717646 5.8125588 5.00651832 7.693639 4.9375 10.9375 C3.69803429 14.98642132 2.12633268 17.14552234 -1 20 C-4.5 20.75 -4.5 20.75 -8 20 C-11.3506485 17.29096504 -12.68800252 15.74061752 -13.4453125 11.515625 C-13.61942516 7.59228635 -13.46394691 4.8472074 -11.5625 1.375 C-7.76342931 -0.66352574 -4.22214379 -0.32478029 0 0 Z " fill="#2D3C56" transform="translate(380,51)"/>
<path d="M0 0 C1.98 0 3.96 0 6 0 C6 14.85 6 29.7 6 45 C4.02 45 2.04 45 0 45 C0 30.15 0 15.3 0 0 Z " fill="#F6F6F7" transform="translate(397,30)"/>
<path d="M0 0 C2.64 0 5.28 0 8 0 C8 0.66 8 1.32 8 2 C5.69 2 3.38 2 1 2 C0.34 5.3 -0.32 8.6 -1 12 C-1.99 12.33 -2.98 12.66 -4 13 C-4 12.34 -4 11.68 -4 11 C-6.64 11 -9.28 11 -12 11 C-12.33 12.98 -12.66 14.96 -13 17 C-13.33 17 -13.66 17 -14 17 C-14 15.02 -14 13.04 -14 11 C-16.97 11 -19.94 11 -23 11 C-23 13.31 -23 15.62 -23 18 C-23.33 18 -23.66 18 -24 18 C-24 15.69 -24 13.38 -24 11 C-26.97 11 -29.94 11 -33 11 C-33 12.65 -33 14.3 -33 16 C-33.66 15.34 -34.32 14.68 -35 14 C-35 13.01 -35 12.02 -35 11 C-37.64 11 -40.28 11 -43 11 C-42.67 12.98 -42.34 14.96 -42 17 C-49.26 16.67 -56.52 16.34 -64 16 C-64.33 31.84 -64.66 47.68 -65 64 C-65.33 64 -65.66 64 -66 64 C-66.02526838 57.03996553 -66.04283222 50.0799428 -66.05493164 43.11987305 C-66.05997341 40.75007688 -66.06680665 38.38028385 -66.07543945 36.01049805 C-66.0875119 32.61245961 -66.09322971 29.21446215 -66.09765625 25.81640625 C-66.10281754 24.74975235 -66.10797882 23.68309845 -66.11329651 22.5841217 C-66.11337204 21.60318039 -66.11344757 20.62223907 -66.11352539 19.61157227 C-66.115746 18.74331314 -66.11796661 17.87505402 -66.12025452 16.98048401 C-66 15 -66 15 -65 14 C-63.5112814 13.91330568 -62.018555 13.89296506 -60.52734375 13.90234375 C-59.62822266 13.90556641 -58.72910156 13.90878906 -57.80273438 13.91210938 C-56.85720703 13.92048828 -55.91167969 13.92886719 -54.9375 13.9375 C-53.98810547 13.94201172 -53.03871094 13.94652344 -52.06054688 13.95117188 C-49.70696935 13.9629989 -47.35351523 13.97947975 -45 14 C-45.33 12.35 -45.66 10.7 -46 9 C-31.81 8.67 -17.62 8.34 -3 8 C-1.515 4.04 -1.515 4.04 0 0 Z " fill="#46A8FB" transform="translate(184,23)"/>
<path d="M0 0 C0.33 0.66 0.66 1.32 1 2 C7.27 2 13.54 2 20 2 C21.88212876 5.76425752 22.24280143 6.7620281 22.13525391 10.67675781 C22.11508209 11.59741028 22.09491028 12.51806274 22.0741272 13.46661377 C22.02583267 14.94493683 22.02583267 14.94493683 21.9765625 16.453125 C21.95153656 17.46848328 21.92651062 18.48384155 21.90072632 19.52996826 C21.81860958 22.77032261 21.72198694 26.01005995 21.625 29.25 C21.56675199 31.44789153 21.50944889 33.64580832 21.453125 35.84375 C21.31304323 41.22950771 21.16105233 46.61483079 21 52 C20.67 52 20.34 52 20 52 C19.67 36.49 19.34 20.98 19 5 C12.73 4.67 6.46 4.34 0 4 C0 4.66 0 5.32 0 6 C-0.66 6 -1.32 6 -2 6 C-1.125 1.125 -1.125 1.125 0 0 Z " fill="#3E93DD" transform="translate(181,35)"/>
<path d="M0 0 C0.33 0 0.66 0 1 0 C1 2.31 1 4.62 1 7 C3.31 7 5.62 7 8 7 C8 5.02 8 3.04 8 1 C8.66 0.67 9.32 0.34 10 0 C10 2.31 10 4.62 10 7 C13.68754757 6.50168276 15.60490662 5.89932357 18 3 C17.67 5.31 17.34 7.62 17 10 C6.11 9.67 -4.78 9.34 -16 9 C-15.67 7.68 -15.34 6.36 -15 5 C-14.67 5.33 -14.34 5.66 -14 6 C-11.65012738 6.23527773 -9.29443961 6.41386417 -6.9375 6.5625 C-5.00197266 6.68818359 -5.00197266 6.68818359 -3.02734375 6.81640625 C-1.52880859 6.90728516 -1.52880859 6.90728516 0 7 C0 4.69 0 2.38 0 0 Z " fill="#46A8FB" transform="translate(160,45)"/>
<path d="M0 0 C0.99 0.33 1.98 0.66 3 1 C2.34 1.99 1.68 2.98 1 4 C-1.87084495 4.2861598 -4.52504289 4.37812186 -7.39697266 4.34057617 C-8.26533249 4.34101425 -9.13369232 4.34145233 -10.02836609 4.34190369 C-12.90715794 4.33980867 -15.78537202 4.3164442 -18.6640625 4.29296875 C-20.6566028 4.28737533 -22.64914722 4.28310403 -24.64169312 4.28010559 C-29.89269347 4.26863684 -35.14344592 4.23915221 -40.39434814 4.20599365 C-45.74984381 4.17533647 -51.10537943 4.16160957 -56.4609375 4.14648438 C-66.97406741 4.11428445 -77.48701311 4.06306362 -88 4 C-88 3.67 -88 3.34 -88 3 C-59.29 3 -30.58 3 -1 3 C-0.67 2.01 -0.34 1.02 0 0 Z " fill="#409AE7" transform="translate(204,93)"/>
<path d="M0 0 C2.64 0 5.28 0 8 0 C8 2.64 8 5.28 8 8 C5.36 8 2.72 8 0 8 C0 5.36 0 2.72 0 0 Z " fill="#1B3151" transform="translate(152,34)"/>
<path d="M0 0 C2.64 0 5.28 0 8 0 C8.33 2.64 8.66 5.28 9 8 C6.69 8 4.38 8 2 8 C0.74335022 5.09399739 0 3.20395416 0 0 Z " fill="#1A2E4E" transform="translate(141,34)"/>
<path d="M0 0 C2.64 0 5.28 0 8 0 C7.125 5.75 7.125 5.75 6 8 C3.69 8 1.38 8 -1 8 C-0.67 5.36 -0.34 2.72 0 0 Z " fill="#1C304E" transform="translate(172,34)"/>
<path d="M0 0 C2.64 0 5.28 0 8 0 C7.67 2.64 7.34 5.28 7 8 C4.69 8 2.38 8 0 8 C0 5.36 0 2.72 0 0 Z " fill="#1A2D4C" transform="translate(162,34)"/>
<path d="M0 0 C1.98 0 3.96 0 6 0 C6 2.64 6 5.28 6 8 C4.02 8 2.04 8 0 8 C0 5.36 0 2.72 0 0 Z " fill="#1B3051" transform="translate(162,44)"/>
<path d="M0 0 C2.31 0 4.62 0 7 0 C7 2.64 7 5.28 7 8 C5.35 8 3.7 8 2 8 C0.74335022 5.09399739 0 3.20395416 0 0 Z " fill="#1A3050" transform="translate(144,44)"/>
<path d="M0 0 C1.98 0 3.96 0 6 0 C5.125 6.875 5.125 6.875 4 8 C2.33382885 8.04063832 0.66611905 8.042721 -1 8 C-0.67 5.36 -0.34 2.72 0 0 Z " fill="#1B2F4E" transform="translate(171,44)"/>
<path d="M0 0 C0.99 0.33 1.98 0.66 3 1 C1.02 1.99 1.02 1.99 -1 3 C-0.67 4.32 -0.34 5.64 0 7 C1.32 7 2.64 7 4 7 C4.33 5.68 4.66 4.36 5 3 C5.66 3 6.32 3 7 3 C7.125 5.375 7.125 5.375 7 8 C5 10 5 10 2 10.25 C-1 10 -1 10 -3 8 C-3.3125 5.5625 -3.3125 5.5625 -3 3 C-1.5 1.1875 -1.5 1.1875 0 0 Z " fill="#43A0EF" transform="translate(148,60)"/>
<path d="M0 0 C1.98 0 3.96 0 6 0 C6 2.64 6 5.28 6 8 C4.35 8 2.7 8 1 8 C0.67 5.36 0.34 2.72 0 0 Z " fill="#1A2E4E" transform="translate(153,44)"/>
<path d="M0 0 C0.33 1.65 0.66 3.3 1 5 C-0.65 5.33 -2.3 5.66 -4 6 C-4.33 4.35 -4.66 2.7 -5 1 C-3 0 -3 0 0 0 Z " fill="#1D385C" transform="translate(152,62)"/>
<path d="M0 0 C2.0625 0.4375 2.0625 0.4375 4 1 C3.67 2.65 3.34 4.3 3 6 C1.68 5.67 0.36 5.34 -1 5 C-1 1 -1 1 0 0 Z " fill="#1D3558" transform="translate(171,62)"/>
<path d="M0 0 C2.64 0 5.28 0 8 0 C7.34 0.66 6.68 1.32 6 2 C4.68 2 3.36 2 2 2 C2.66 3.32 3.32 4.64 4 6 C3.01 6 2.02 6 1 6 C0 5 0 5 -0.0625 2.4375 C-0.041875 1.633125 -0.02125 0.82875 0 0 Z " fill="#419BE9" transform="translate(112,87)"/>
<path d="M0 0 C2.64 0 5.28 0 8 0 C8 0.66 8 1.32 8 2 C5.69 2 3.38 2 1 2 C1 2.99 1 3.98 1 5 C0.01 5.33 -0.98 5.66 -2 6 C-1.34 4.02 -0.68 2.04 0 0 Z " fill="#429EEC" transform="translate(184,23)"/>
</svg>
