<?xml version="1.0" encoding="UTF-8"?>
<svg version="1.1" xmlns="http://www.w3.org/2000/svg" width="119" height="107">
<path d="M0 0 C39.27 0 78.54 0 119 0 C119 35.31 119 70.62 119 107 C79.73 107 40.46 107 0 107 C0 71.69 0 36.38 0 0 Z " fill="#283853" transform="translate(0,0)"/>
<path d="M0 0 C2.31 0 4.62 0 7 0 C7 1.32 7 2.64 7 4 C12.61 4.33 18.22 4.66 24 5 C25.17393709 18.79376079 25 31.99548573 25 46 C1.57 46 -21.86 46 -46 46 C-46 30.25 -46 30.25 -45.78125 24.7265625 C-45.73613281 23.55351563 -45.69101562 22.38046875 -45.64453125 21.171875 C-45.59683594 20.00140625 -45.54914062 18.8309375 -45.5 17.625 C-45.45230469 16.40039062 -45.40460937 15.17578125 -45.35546875 13.9140625 C-45.2393965 10.94261292 -45.12005218 7.97129144 -45 5 C-39.39 5 -33.78 5 -28 5 C-25 13.5 -25 13.5 -25 18 C-16.42 18 -7.84 18 1 18 C1 18.99 1 19.98 1 21 C-10.88 21.99 -10.88 21.99 -23 23 C-23 25.31 -23 27.62 -23 30 C-18.89776415 31.01540112 -18.89776415 31.01540112 -15 30 C-14.34444881 27.47266765 -14.34444881 27.47266765 -14 25 C-10.7 25 -7.4 25 -4 25 C-3.505 27.475 -3.505 27.475 -3 30 C-0.69 30 1.62 30 4 30 C3.97679687 29.3709375 3.95359375 28.741875 3.9296875 28.09375 C3.80815919 22.32983602 4.36226294 17.52736258 6 12 C5.34 12 4.68 12 4 12 C3.67 12.99 3.34 13.98 3 15 C1.68 15 0.36 15 -1 15 C-1.02703381 13.06257659 -1.04641125 11.12504521 -1.0625 9.1875 C-1.07410156 8.10855469 -1.08570313 7.02960937 -1.09765625 5.91796875 C-1 3 -1 3 0 0 Z " fill="#182947" transform="translate(70,30)"/>
<path d="M0 0 C2.64 0 5.28 0 8 0 C8 0.66 8 1.32 8 2 C6.02 2 4.04 2 2 2 C1.34 5.3 0.68 8.6 0 12 C1.13179687 11.97679687 2.26359375 11.95359375 3.4296875 11.9296875 C4.91145175 11.91093099 6.39322312 11.89273066 7.875 11.875 C8.62136719 11.85824219 9.36773437 11.84148438 10.13671875 11.82421875 C12.09194461 11.8066041 14.04742021 11.89679811 16 12 C18 14 18 14 18.24050903 15.87295532 C18.23606781 16.63240448 18.23162659 17.39185364 18.22705078 18.17431641 C18.22689972 19.03505768 18.22674866 19.89579895 18.22659302 20.78262329 C18.21627045 21.71287323 18.20594788 22.64312317 18.1953125 23.6015625 C18.1924826 24.55316254 18.18965271 25.50476257 18.18673706 26.48519897 C18.17551989 29.53192592 18.15041263 32.57836154 18.125 35.625 C18.11497218 37.68749576 18.10584599 39.74999612 18.09765625 41.8125 C18.07557554 46.87511267 18.0410353 51.9375069 18 57 C19.32 57 20.64 57 22 57 C22.35958527 61.43488498 22.35958527 61.43488498 20.95410156 63.64370728 C18.00037981 65.69381122 15.01568167 65.41769223 11.546875 65.38818359 C10.79047729 65.39344055 10.03407959 65.39869751 9.25476074 65.40411377 C6.75296414 65.41732414 4.25180314 65.40857232 1.75 65.3984375 C0.01269407 65.40045794 -1.72461104 65.40336914 -3.46191406 65.40713501 C-7.10359774 65.41155976 -10.74506072 65.40512254 -14.38671875 65.39111328 C-19.05773484 65.37402122 -23.72823384 65.38386161 -28.39923096 65.40183067 C-31.98685613 65.41266449 -35.57435845 65.40922404 -39.1619873 65.4014473 C-40.88440003 65.39944417 -42.60682387 65.4019085 -44.32922363 65.40888596 C-46.73540855 65.41649395 -49.1407528 65.40490612 -51.546875 65.38818359 C-52.26073364 65.39425629 -52.97459229 65.40032898 -53.71008301 65.40658569 C-56.57795359 65.36960818 -58.54361624 65.30946599 -60.95410156 63.67495728 C-62.53082874 61.14990268 -62.19331418 58.89971277 -62 56 C-60.68 56 -59.36 56 -58 56 C-58.00523682 54.73816895 -58.01047363 53.47633789 -58.01586914 52.17626953 C-58.03393458 47.50602932 -58.04543769 42.83579221 -58.05493164 38.16552734 C-58.05996831 36.14208457 -58.06679789 34.11864544 -58.07543945 32.09521484 C-58.08753412 29.19107157 -58.09323488 26.28697631 -58.09765625 23.3828125 C-58.10539818 22.02024826 -58.10539818 22.02024826 -58.11329651 20.63015747 C-58.11337204 19.78943695 -58.11344757 18.94871643 -58.11352539 18.08251953 C-58.115746 17.34083527 -58.11796661 16.599151 -58.12025452 15.83499146 C-58 14 -58 14 -57 12 C-51.06 12 -45.12 12 -39 12 C-39.33 10.68 -39.66 9.36 -40 8 C-36.11040173 6.72840057 -32.21436421 6.87348813 -28.171875 6.90234375 C-27.42286926 6.9037587 -26.67386353 6.90517365 -25.90216064 6.90663147 C-23.51806588 6.91221341 -21.13406622 6.92476255 -18.75 6.9375 C-17.13020969 6.94251734 -15.51041791 6.94707984 -13.890625 6.95117188 C-9.92704688 6.96217692 -5.96353955 6.97942909 -2 7 C-1.34 4.69 -0.68 2.38 0 0 Z M-10 10 C-10.71167986 15.07071901 -11.10662326 19.88208358 -11 25 C-9.35 24.67 -7.7 24.34 -6 24 C-6 23.34 -6 22.68 -6 22 C-5.34 22 -4.68 22 -4 22 C-4.33 23.11375 -4.66 24.2275 -5 25.375 C-6.24429211 30.26454223 -6.18495088 34.98577615 -6 40 C-8.31 40 -10.62 40 -13 40 C-13.33 38.35 -13.66 36.7 -14 35 C-17.3 35 -20.6 35 -24 35 C-24.33 36.65 -24.66 38.3 -25 40 C-30.75 41.125 -30.75 41.125 -33 40 C-33 37.69 -33 35.38 -33 33 C-21.12 32.01 -21.12 32.01 -9 31 C-9 30.01 -9 29.02 -9 28 C-17.58 28 -26.16 28 -35 28 C-35.33 25.03 -35.66 22.06 -36 19 C-36.66 17.68 -37.32 16.36 -38 15 C-43.61 15 -49.22 15 -55 15 C-55.17002913 19.20822093 -55.33609155 23.41653969 -55.5 27.625 C-55.54769531 28.79546875 -55.59539063 29.9659375 -55.64453125 31.171875 C-55.68964844 32.34492187 -55.73476563 33.51796875 -55.78125 34.7265625 C-55.82314453 35.78439941 -55.86503906 36.84223633 -55.90820312 37.93212891 C-56.04407873 43.95329742 -56 49.97729857 -56 56 C-32.57 56 -9.14 56 15 56 C15.08696854 35.39462326 15.08696854 35.39462326 14 15 C8.39 14.67 2.78 14.34 -3 14 C-3 12.68 -3 11.36 -3 10 C-5.31 10 -7.62 10 -10 10 Z " fill="#3985C9" transform="translate(80,20)"/>
<path d="M0 0 C5.61 0 11.22 0 17 0 C16.67 0.66 16.34 1.32 16 2 C15.95397359 4.69542183 15.95319184 7.36869049 16 10.0625 C16.04584426 12.71459031 16.0470164 15.34651194 16 18 C13.3635859 20.6364141 7.51956865 20.01183328 4.03515625 20.09765625 C2.72417969 20.08605469 1.41320312 20.07445313 0.0625 20.0625 C-0.62134766 20.05798828 -1.30519531 20.05347656 -2.00976562 20.04882812 C-3.67321604 20.0371956 -5.3366205 20.01926694 -7 20 C-7.53364887 17.94077867 -8.05142189 15.87743893 -8.5625 13.8125 C-8.99755859 12.08966797 -8.99755859 12.08966797 -9.44140625 10.33203125 C-9.98068761 7.11519907 -9.88247476 5.10327217 -9 2 C-6.69 2 -4.38 2 -2 2 C-1.34 3.32 -0.68 4.64 0 6 C1.01111093 2.95086772 1.01111093 2.95086772 0 0 Z " fill="#3E92DB" transform="translate(52,28)"/>
<path d="M0 0 C0.66 0 1.32 0 2 0 C1.9278125 0.79664063 1.855625 1.59328125 1.78125 2.4140625 C1.64203125 4.00347656 1.64203125 4.00347656 1.5 5.625 C1.36078125 7.19121094 1.36078125 7.19121094 1.21875 8.7890625 C0.95718373 12.01835499 0.95718373 12.01835499 1.03125 15.3359375 C1 18 1 18 0 19 C-3.5 19.125 -3.5 19.125 -7 19 C-7.33 18.67 -7.66 18.34 -8 18 C-8 16.35 -8 14.7 -8 13 C-11.3 13 -14.6 13 -18 13 C-18 14.65 -18 16.3 -18 18 C-21 20 -21 20 -24.125 19.6875 C-27 19 -27 19 -28 18 C-27.6875 14.5 -27.6875 14.5 -27 11 C-24.53879159 9.76939579 -22.74223134 9.7942277 -19.9921875 9.68359375 C-19.00605469 9.64169922 -18.01992188 9.59980469 -17.00390625 9.55664062 C-15.97136719 9.51732422 -14.93882813 9.47800781 -13.875 9.4375 C-12.83472656 9.39431641 -11.79445313 9.35113281 -10.72265625 9.30664062 C-8.14857472 9.2003712 -5.57439492 9.09833417 -3 9 C-3 8.01 -3 7.02 -3 6 C-6.63 6 -10.26 6 -14 6 C-14 5.67 -14 5.34 -14 5 C-7.565 4.505 -7.565 4.505 -1 4 C-0.67 2.68 -0.34 1.36 0 0 Z " fill="#419BE9" transform="translate(74,42)"/>
<path d="M0 0 C25.74 0 51.48 0 78 0 C77.67 0.99 77.34 1.98 77 3 C51.59 3 26.18 3 0 3 C0 2.01 0 1.02 0 0 Z " fill="#172744" transform="translate(21,79)"/>
<path d="M0 0 C0.36076355 1.87295532 0.36076355 1.87295532 0.34057617 4.17431641 C0.34021362 5.04709229 0.33985107 5.91986816 0.33947754 6.8190918 C0.32412964 7.73730713 0.30878174 8.65552246 0.29296875 9.6015625 C0.28994751 10.44485107 0.28692627 11.28813965 0.28381348 12.15698242 C0.26809372 15.31311242 0.22620978 18.46906825 0.1875 21.625 C0.125625 28.67875 0.06375 35.7325 0 43 C-24.42 43 -48.84 43 -74 43 C-74 42.67 -74 42.34 -74 42 C-50.57 42 -27.14 42 -3 42 C-3.495 29.13 -3.495 29.13 -4 16 C-4.03424577 11.00011728 -4.05318848 5.99971709 -4 1 C-7.96 1 -11.92 1 -16 1 C-12.92050484 -1.05299677 -11.57483032 -1.38826122 -8 -1.75 C-7.13375 -1.84796875 -6.2675 -1.9459375 -5.375 -2.046875 C-3 -2 -3 -2 0 0 Z " fill="#3882C3" transform="translate(98,34)"/>
<path d="M0 0 C2.64 0 5.28 0 8 0 C8 0.66 8 1.32 8 2 C6.02 2 4.04 2 2 2 C1.34 5.3 0.68 8.6 0 12 C4.95 12 9.9 12 15 12 C15 12.33 15 12.66 15 13 C9.06 13.33 3.12 13.66 -3 14 C-3 12.68 -3 11.36 -3 10 C-5.31 10 -7.62 10 -10 10 C-10.33 12.31 -10.66 14.62 -11 17 C-9.02 17 -7.04 17 -5 17 C-5 17.33 -5 17.66 -5 18 C-6.98 18 -8.96 18 -11 18 C-11 20.31 -11 22.62 -11 25 C-9.68 25.33 -8.36 25.66 -7 26 C-8.65 26 -10.3 26 -12 26 C-12.82622671 20.39436958 -13.06795656 15.57710648 -12 10 C-13.134375 10 -14.26875 10 -15.4375 10 C-19.29166667 10 -23.14583333 10 -27 10 C-27 12.31 -27 14.62 -27 17 C-28.74627478 14.38058783 -29.38722388 12.96175123 -30 10 C-32.31 10 -34.62 10 -37 10 C-36.67 9.01 -36.34 8.02 -36 7 C-24.78 7 -13.56 7 -2 7 C-1.34 4.69 -0.68 2.38 0 0 Z " fill="#3C8CD3" transform="translate(80,20)"/>
<path d="M0 0 C0.33 0 0.66 0 1 0 C1 3.96 1 7.92 1 12 C2.65 12 4.3 12 6 12 C6.35939564 16.43254621 6.35939564 16.43254621 4.95707703 18.64668274 C1.98646759 20.70085688 -1.01833666 20.39284725 -4.50073242 20.34057617 C-5.6425573 20.34123329 -5.6425573 20.34123329 -6.80744934 20.34190369 C-9.32371666 20.33981353 -11.83931782 20.31647235 -14.35546875 20.29296875 C-16.09995662 20.28737359 -17.84444921 20.28310311 -19.58894348 20.28010559 C-24.18070487 20.26865049 -28.77218164 20.23917765 -33.36383057 20.20599365 C-38.04915517 20.17530707 -42.73452575 20.16160328 -47.41992188 20.14648438 C-56.61340631 20.11430854 -65.80667949 20.06310418 -75 20 C-75 19.67 -75 19.34 -75 19 C-49.59 18.67 -24.18 18.34 2 18 C2.99 15.525 2.99 15.525 4 13 C-21.41 13 -46.82 13 -73 13 C-73 12.67 -73 12.34 -73 12 C-48.91 12 -24.82 12 0 12 C0 8.04 0 4.08 0 0 Z " fill="#429FEE" transform="translate(96,65)"/>
<path d="M0 0 C26.73 0 53.46 0 81 0 C80.67 0.99 80.34 1.98 80 3 C69.86464856 3.06941159 59.72935336 3.12276615 49.59381294 3.15543652 C44.88781483 3.17111411 40.18197895 3.19239036 35.47607422 3.22631836 C30.9373502 3.25883745 26.39878252 3.27683723 21.85995102 3.28463173 C20.12552299 3.29018868 18.39110383 3.30103963 16.6567421 3.31719017 C14.23337342 3.33886587 11.81065653 3.34197113 9.38720703 3.34057617 C8.30395645 3.35675491 8.30395645 3.35675491 7.19882202 3.3732605 C5.20169067 3.36076355 5.20169067 3.36076355 2 3 C1.34 2.01 0.68 1.02 0 0 Z " fill="#3478B6" transform="translate(18,81)"/>
<path d="M0 0 C2.31 0 4.62 0 7 0 C7 1.32 7 2.64 7 4 C8.65 4 10.3 4 12 4 C10.68 4.33 9.36 4.66 8 5 C7.67 7.31 7.34 9.62 7 12 C6.01 12 5.02 12 4 12 C3.67 12.99 3.34 13.98 3 15 C1.68 15 0.36 15 -1 15 C-1.02703381 13.06257659 -1.04641125 11.12504521 -1.0625 9.1875 C-1.07410156 8.10855469 -1.08570312 7.02960937 -1.09765625 5.91796875 C-1 3 -1 3 0 0 Z " fill="#3374B0" transform="translate(70,30)"/>
<path d="M0 0 C2.64 0 5.28 0 8 0 C8 0.66 8 1.32 8 2 C6.02 2 4.04 2 2 2 C1.34 5.3 0.68 8.6 0 12 C4.95 12 9.9 12 15 12 C15 12.33 15 12.66 15 13 C9.06 13.33 3.12 13.66 -3 14 C-3 12.35 -3 10.7 -3 9 C-5.31 9 -7.62 9 -10 9 C-9.67 8.34 -9.34 7.68 -9 7 C-6.69 7 -4.38 7 -2 7 C-1.34 4.69 -0.68 2.38 0 0 Z " fill="#44A3F3" transform="translate(80,20)"/>
<path d="M0 0 C1.32 0 2.64 0 4 0 C4.33 0.66 4.66 1.32 5 2 C5.33 1.34 5.66 0.68 6 0 C11.28 0 16.56 0 22 0 C22.33 1.65 22.66 3.3 23 5 C21.02 5.33 19.04 5.66 17 6 C17 4.35 17 2.7 17 1 C13.7 1 10.4 1 7 1 C7 2.65 7 4.3 7 6 C4 8 4 8 1.8125 7.625 C1.214375 7.41875 0.61625 7.2125 0 7 C0 4.66666667 0 2.33333333 0 0 Z " fill="#3C8DD4" transform="translate(49,54)"/>
<path d="M0 0 C2.31 0 4.62 0 7 0 C7 2.31 7 4.62 7 7 C4.69 7 2.38 7 0 7 C0 4.69 0 2.38 0 0 Z " fill="#1E385C" transform="translate(61,30)"/>
<path d="M0 0 C2.31 0 4.62 0 7 0 C7 2.31 7 4.62 7 7 C4.69 7 2.38 7 0 7 C0 4.69 0 2.38 0 0 Z " fill="#1D395C" transform="translate(53,30)"/>
<path d="M0 0 C1.98 0 3.96 0 6 0 C6 2.64 6 5.28 6 8 C4.02 8 2.04 8 0 8 C0 5.36 0 2.72 0 0 Z " fill="#2C6095" transform="translate(61,38)"/>
<path d="M0 0 C2.31 0 4.62 0 7 0 C7.33 2.31 7.66 4.62 8 7 C6.02 7 4.04 7 2 7 C1.34 4.69 0.68 2.38 0 0 Z " fill="#1C3659" transform="translate(43,30)"/>
<path d="M0 0 C-0.33 0.66 -0.66 1.32 -1 2 C-1.23029956 4.37123246 -1.41119942 6.74741943 -1.5625 9.125 C-1.64628906 10.40632813 -1.73007813 11.68765625 -1.81640625 13.0078125 C-1.87699219 13.99523438 -1.93757813 14.98265625 -2 16 C-2.33 16 -2.66 16 -3 16 C-3 11.05 -3 6.1 -3 1 C-6.96 1 -10.92 1 -15 1 C-11.90638642 -1.06240906 -10.53301454 -1.38991902 -6.9375 -1.75 C-5.62072266 -1.89695313 -5.62072266 -1.89695313 -4.27734375 -2.046875 C-2 -2 -2 -2 0 0 Z " fill="#3781C4" transform="translate(97,34)"/>
<path d="M0 0 C1.98 0 3.96 0 6 0 C6 2.64 6 5.28 6 8 C4.35 8 2.7 8 1 8 C0.67 5.36 0.34 2.72 0 0 Z " fill="#21416A" transform="translate(53,38)"/>
<path d="M0 0 C2.31 0 4.62 0 7 0 C6.67 1.98 6.34 3.96 6 6 C4.02 6 2.04 6 0 6 C0 4.02 0 2.04 0 0 Z " fill="#1C304E" transform="translate(70,30)"/>
<path d="M0 0 C3.3 0 6.6 0 10 0 C10 0.33 10 0.66 10 1 C7.69 1 5.38 1 3 1 C3 2.98 3 4.96 3 7 C0.03 7 -2.94 7 -6 7 C-6.33 6.34 -6.66 5.68 -7 5 C-4.36 5 -1.72 5 1 5 C0.67 3.35 0.34 1.7 0 0 Z " fill="#45A5F6" transform="translate(40,28)"/>
<path d="M0 0 C4.95 0 9.9 0 15 0 C15.33 1.65 15.66 3.3 16 5 C14.02 5.33 12.04 5.66 10 6 C10 4.35 10 2.7 10 1 C6.7 1 3.4 1 0 1 C0 0.67 0 0.34 0 0 Z " fill="#2B5E92" transform="translate(56,54)"/>
<path d="M0 0 C1.65 0 3.3 0 5 0 C5 1.65 5 3.3 5 5 C3.35 5.33 1.7 5.66 0 6 C0 4.02 0 2.04 0 0 Z " fill="#1B3151" transform="translate(69,39)"/>
<path d="M0 0 C0.33 0 0.66 0 1 0 C1.04254356 1.99954746 1.04080783 4.00041636 1 6 C0 7 0 7 -3.5625 7.0625 C-4.696875 7.041875 -5.83125 7.02125 -7 7 C-7 5.35 -7 3.7 -7 2 C-6.67 2.99 -6.34 3.98 -6 5 C-4.68 5 -3.36 5 -2 5 C-1.855625 4.360625 -1.71125 3.72125 -1.5625 3.0625 C-1 1 -1 1 0 0 Z " fill="#3D90D9" transform="translate(74,54)"/>
<path d="M0 0 C1.65 0 3.3 0 5 0 C5 1.98 5 3.96 5 6 C3.68 6 2.36 6 1 6 C0.67 4.02 0.34 2.04 0 0 Z " fill="#1A3050" transform="translate(46,39)"/>
<path d="M0 0 C1.13115234 0.07831055 1.13115234 0.07831055 2.28515625 0.15820312 C4.1487937 0.28795004 6.01194996 0.42457488 7.875 0.5625 C7.875 0.8925 7.875 1.2225 7.875 1.5625 C1.935 1.8925 -4.005 2.2225 -10.125 2.5625 C-10.125 1.9025 -10.125 1.2425 -10.125 0.5625 C-6.91158631 -1.04420684 -3.49541032 -0.26260855 0 0 Z " fill="#3E94DE" transform="translate(87.125,31.4375)"/>
<path d="M0 0 C0.66 0 1.32 0 2 0 C2 1.98 2 3.96 2 6 C2.66 6.33 3.32 6.66 4 7 C2.0625 7.5625 2.0625 7.5625 0 8 C-0.33 7.67 -0.66 7.34 -1 7 C-0.71269945 4.66055264 -0.38063221 2.3260857 0 0 Z " fill="#3D91DA" transform="translate(47,53)"/>
<path d="M0 0 C1.32 0 2.64 0 4 0 C4 1.98 4 3.96 4 6 C2.68 6 1.36 6 0 6 C0 4.02 0 2.04 0 0 Z " fill="#1B3051" transform="translate(62,39)"/>
<path d="M0 0 C2.64 0 5.28 0 8 0 C8 0.66 8 1.32 8 2 C6.02 2 4.04 2 2 2 C1.67 2.99 1.34 3.98 1 5 C0.34 5 -0.32 5 -1 5 C-0.67 3.35 -0.34 1.7 0 0 Z " fill="#419AE6" transform="translate(80,20)"/>
<path d="M0 0 C1.32 0 2.64 0 4 0 C4 1.65 4 3.3 4 5 C2.68 5 1.36 5 0 5 C0 3.35 0 1.7 0 0 Z " fill="#204169" transform="translate(49,54)"/>
<path d="M0 0 C0 0.33 0 0.66 0 1 C-1.98 1 -3.96 1 -6 1 C-6.33 3.31 -6.66 5.62 -7 8 C-7.33 8 -7.66 8 -8 8 C-8.33 5.36 -8.66 2.72 -9 0 C-5.93109813 -1.53445094 -3.29905734 -0.54984289 0 0 Z " fill="#419BE9" transform="translate(67,37)"/>
<path d="M0 0 C1.98 0 3.96 0 6 0 C5.67 0.66 5.34 1.32 5 2 C4.01 2 3.02 2 2 2 C2.33 2.99 2.66 3.98 3 5 C2.01 5 1.02 5 0 5 C0 3.35 0 1.7 0 0 Z " fill="#4098E4" transform="translate(18,76)"/>
<path d="M0 0 C2 3 2 3 2 5 C3.32 5.33 4.64 5.66 6 6 C4.68 6 3.36 6 2 6 C1.67 6.66 1.34 7.32 1 8 C-1.125 3.375 -1.125 3.375 0 0 Z " fill="#3A88CE" transform="translate(43,32)"/>
</svg>
